<?xml version="1.0" ?><svg id="Layer_1" style="enable-background:new 0 0 128 128;" version="1.1" viewBox="0 0 128 128" xml:space="preserve" xmlns="http://www.w3.org/2000/svg" xmlns:xlink="http://www.w3.org/1999/xlink"><style type="text/css">
	.st0{fill:#FF5576;}
	.st1{fill:#FFFFFF;}
	.st2{fill:#FFF0B3;}
	.st3{fill:#F2B630;}
	.st4{fill:none;stroke:#444B54;stroke-width:6;stroke-linecap:round;stroke-linejoin:round;stroke-miterlimit:10;}
	.st5{fill:#88E3FF;}
	.st6{fill:none;stroke:#444B54;stroke-width:6;stroke-linecap:round;stroke-linejoin:round;}
	.st7{fill:none;stroke:#444B54;stroke-width:6;stroke-linecap:round;stroke-linejoin:round;stroke-dasharray:6.1978,16.5275;}
	.st8{fill:#C3DBEA;}
	.st9{fill:#444B54;}
	.st10{fill:#D4D3DD;}
	.st11{fill:#8888AA;}
	.st12{fill:#E6E6EF;}
	.st13{fill:#B5B4C1;}
	.st14{fill:#B2F9EB;}
	.st15{fill:#2DBDA4;}
	.st16{fill:#11967D;}
	.st17{fill:#41CEB3;}
	.st18{fill:#146B8E;}
	.st19{fill:#6E6E8E;}
	.st20{fill:#F2F2F4;}
	.st21{fill:none;stroke:#FF5576;stroke-width:6;stroke-linecap:round;stroke-linejoin:round;stroke-miterlimit:10;}
	.st22{fill:#228EC4;}
</style><path class="st1" d="M114,49V24c0-2.8-2.2-5-5-5H24c-2.8,0-5,2.2-5,5v25l47.5,40L114,49z"/><path class="st4" d="M114,49V24c0-2.8-2.2-5-5-5H44H24c-2.8,0-5,2.2-5,5v5v9"/><path class="st2" d="M109,114H24c-2.8,0-5-2.2-5-5V49l47.5,40L114,49v60C114,111.8,111.8,114,109,114z"/><polygon class="st3" points="86.1,72.5 114,110.9 77.7,79.6 "/><path class="st2" d="M33,100l26.6-24.7c3.9-3.6,9.8-3.5,13.7,0.1l37.6,35.5"/><path class="st3" d="M114,109l-10-5H44c-2.8,0-5,2.2-5,5v0c0,2.8,2.2,5,5,5h65C111.8,114,114,111.8,114,109z"/><path class="st4" d="M33,100l26.6-24.7c3.9-3.6,9.8-3.5,13.7,0.1l37.6,35.5"/><path class="st4" d="M77.7,79.6L114,49v60c0,2.8-2.2,5-5,5H24c-2.8,0-5-2.2-5-5V49l28.8,24.3"/></svg>