<?xml version="1.0" ?><svg id="Layer_1" style="enable-background:new 0 0 128 128;" version="1.1" viewBox="0 0 128 128" xml:space="preserve" xmlns="http://www.w3.org/2000/svg" xmlns:xlink="http://www.w3.org/1999/xlink"><style type="text/css">
	.st0{fill:none;stroke:#444B54;stroke-width:6;stroke-linecap:round;stroke-linejoin:round;stroke-miterlimit:10;}
	.st1{fill:#FF5576;}
	.st2{fill:#FFFFFF;}
	.st3{fill:#FFF0B3;}
	.st4{fill:#F2B630;}
	.st5{fill:#88E3FF;}
	.st6{fill:none;stroke:#444B54;stroke-width:6;stroke-linecap:round;stroke-linejoin:round;}
	.st7{fill:none;stroke:#444B54;stroke-width:6;stroke-linecap:round;stroke-linejoin:round;stroke-dasharray:6.1978,16.5275;}
	.st8{fill:#C3DBEA;}
	.st9{fill:#444B54;}
	.st10{fill:#D4D3DD;}
	.st11{fill:#8888AA;}
	.st12{fill:#E6E6EF;}
	.st13{fill:#B5B4C1;}
	.st14{fill:#B2F9EB;}
	.st15{fill:#2DBDA4;}
	.st16{fill:#11967D;}
	.st17{fill:#41CEB3;}
	.st18{fill:#146B8E;}
	.st19{fill:#6E6E8E;}
	.st20{fill:#F2F2F4;}
	.st21{fill:none;stroke:#FF5576;stroke-width:6;stroke-linecap:round;stroke-linejoin:round;stroke-miterlimit:10;}
	.st22{fill:#228EC4;}
	.st23{opacity:0.5;fill:#F2F2F4;}
	.st24{opacity:0.1;fill:#FFFFFF;}
	.st25{fill:#DB3E64;}
	.st26{fill:none;stroke:#FFFFFF;stroke-width:6;stroke-linecap:round;stroke-linejoin:round;stroke-miterlimit:10;}
</style><path class="st8" d="M66.9,58.6v9.9c0,2.8,2.3,5.1,5.1,5.1h0c2.8,0,5.1-2.3,5.1-5.1V43.1c0-4.8,3.8-9,8.6-9.1c4.9-0.1,9,3.9,9,8.8  v36.7c0,2.8,2.3,5.1,5.1,5.1h0c2.8,0,5.1-2.3,5.1-5.1v-9.9c0-3.9,3.1-7,7-7h0c3.9,0,7,3.1,7,7v10.6c0,8.1-6.6,14.7-14.7,14.7h-9.5  V114H77.2V83.9h-9.5c-8.1,0-14.7-6.6-14.7-14.7l0-10.6c0-3.9,3.1-7,7-7h0C63.8,51.6,66.9,54.7,66.9,58.6z"/><path class="st17" d="M82,38.5V52c0,3.9-3.1,7-7,7h0c-3.9,0-7-3.1-7-7l0-29.6c0-6.6-5.2-12.3-11.8-12.4C49.5,9.9,44,15.3,44,22v45  c0,3.9-3.1,7-7,7h0c-3.9,0-7-3.1-7-7V53.5c0-5.2-4.3-9.5-9.5-9.5h0c-5.2,0-9.5,4.3-9.5,9.5V68c0,11,9,20,20,20h13v26h24V73h13  c11,0,20-9,20-20V38.5c0-5.2-4.3-9.5-9.5-9.5h0C86.3,29,82,33.3,82,38.5z"/><g><path class="st16" d="M93,45v8c0,5.5-4.5,10-10,10H68V33c0-2.8-2.2-5-5-5h0c-2.8,0-5,2.2-5,5v69.5c0,1.9-1.6,3.5-3.5,3.5h0   c-1.9,0-3.5,1.6-3.5,3.5v1c0,1.9,1.6,3.5,3.5,3.5H68V73h21c6.6,0,12-5.4,12-12V45c0-2.2-1.8-4-4-4h0C94.8,41,93,42.8,93,45z"/></g><path class="st0" d="M37,74L37,74c-3.9,0-7-3.1-7-7V53.5c0-5.2-4.3-9.5-9.5-9.5h0c-5.2,0-9.5,4.3-9.5,9.5V68c0,11,9,20,20,20h13v26  h24V73h13c11,0,20-9,20-20l0-14.8c0-5.1-4.1-9.2-9.2-9.2h-0.2c-5.3,0-9.5,4.2-9.5,9.5c0,4.4,0,9.5,0,13.5c0,3.9-3.1,7-7,7h0"/><path class="st0" d="M68,52l0-29.6c0-6.6-5.2-12.3-11.8-12.4C49.5,9.9,44,15.3,44,22v45"/><line class="st0" x1="24" x2="94" y1="114" y2="114"/><circle class="st9" cx="109.5" cy="114" r="3"/><path class="st0" d="M13.5,47L11,44.5L13.5,47z"/><line class="st0" x1="101" x2="105" y1="45" y2="45"/><line class="st0" x1="71.3" x2="68.3" y1="89.3" y2="89.3"/><path class="st0" d="M65.7,13.5l2.5-2.5L65.7,13.5z"/></svg>